<?xml version="1.0" standalone="no"?>
<!DOCTYPE svg PUBLIC "-//W3C//DTD SVG 1.1//EN" 
  "http://www.w3.org/Graphics/SVG/1.1/DTD/svg11.dtd">
<svg width="30.0cm" height="15.0cm" viewBox="0 0 3000 1500"
     xmlns="http://www.w3.org/2000/svg" version="1.1">

<path transform="rotate(0, 304.000000, 412.500000)" d="M 304.000000 412.500000 m -49.500000 -49.500000 v -119.100000 a 49.500000 49.500000 0 0 1 99.000000 0.000000 v 119.100000" fill="none" stroke="blue" stroke-width="1"/>
<path transform="rotate(90, 304.000000, 412.500000)" d="M 304.000000 412.500000 m -49.500000 -49.500000 v -119.100000 a 49.500000 49.500000 0 0 1 99.000000 0.000000 v 119.100000" fill="none" stroke="blue" stroke-width="1"/>
<path transform="rotate(180, 304.000000, 412.500000)" d="M 304.000000 412.500000 m -49.500000 -49.500000 v -119.100000 a 49.500000 49.500000 0 0 1 99.000000 0.000000 v 119.100000" fill="none" stroke="blue" stroke-width="1"/>
<path transform="rotate(270, 304.000000, 412.500000)" d="M 304.000000 412.500000 m -49.500000 -49.500000 v -119.100000 a 49.500000 49.500000 0 0 1 99.000000 0.000000 v 119.100000" fill="none" stroke="blue" stroke-width="1"/>
<path transform="rotate(0, 608.000000, 247.500000)" d="M 608.000000 247.500000 m -49.500000 -49.500000 v -119.100000 a 49.500000 49.500000 0 0 1 99.000000 0.000000 v 119.100000" fill="none" stroke="blue" stroke-width="1"/>
<path transform="rotate(90, 608.000000, 247.500000)" d="M 608.000000 247.500000 m -49.500000 -49.500000 v -119.100000 a 49.500000 49.500000 0 0 1 99.000000 0.000000 v 119.100000" fill="none" stroke="blue" stroke-width="1"/>
<path transform="rotate(180, 608.000000, 247.500000)" d="M 608.000000 247.500000 m -49.500000 -49.500000 v -119.100000 a 49.500000 49.500000 0 0 1 99.000000 0.000000 v 119.100000" fill="none" stroke="blue" stroke-width="1"/>
<path transform="rotate(270, 608.000000, 247.500000)" d="M 608.000000 247.500000 m -49.500000 -49.500000 v -119.100000 a 49.500000 49.500000 0 0 1 99.000000 0.000000 v 119.100000" fill="none" stroke="blue" stroke-width="1"/>
<path transform="rotate(0, 912.000000, 412.500000)" d="M 912.000000 412.500000 m -49.500000 -49.500000 v -119.100000 a 49.500000 49.500000 0 0 1 99.000000 0.000000 v 119.100000" fill="none" stroke="blue" stroke-width="1"/>
<path transform="rotate(90, 912.000000, 412.500000)" d="M 912.000000 412.500000 m -49.500000 -49.500000 v -119.100000 a 49.500000 49.500000 0 0 1 99.000000 0.000000 v 119.100000" fill="none" stroke="blue" stroke-width="1"/>
<path transform="rotate(180, 912.000000, 412.500000)" d="M 912.000000 412.500000 m -49.500000 -49.500000 v -119.100000 a 49.500000 49.500000 0 0 1 99.000000 0.000000 v 119.100000" fill="none" stroke="blue" stroke-width="1"/>
<path transform="rotate(270, 912.000000, 412.500000)" d="M 912.000000 412.500000 m -49.500000 -49.500000 v -119.100000 a 49.500000 49.500000 0 0 1 99.000000 0.000000 v 119.100000" fill="none" stroke="blue" stroke-width="1"/>
<path transform="rotate(0, 1216.000000, 247.500000)" d="M 1216.000000 247.500000 m -49.500000 -49.500000 v -119.100000 a 49.500000 49.500000 0 0 1 99.000000 0.000000 v 119.100000" fill="none" stroke="blue" stroke-width="1"/>
<path transform="rotate(90, 1216.000000, 247.500000)" d="M 1216.000000 247.500000 m -49.500000 -49.500000 v -119.100000 a 49.500000 49.500000 0 0 1 99.000000 0.000000 v 119.100000" fill="none" stroke="blue" stroke-width="1"/>
<path transform="rotate(180, 1216.000000, 247.500000)" d="M 1216.000000 247.500000 m -49.500000 -49.500000 v -119.100000 a 49.500000 49.500000 0 0 1 99.000000 0.000000 v 119.100000" fill="none" stroke="blue" stroke-width="1"/>
<path transform="rotate(270, 1216.000000, 247.500000)" d="M 1216.000000 247.500000 m -49.500000 -49.500000 v -119.100000 a 49.500000 49.500000 0 0 1 99.000000 0.000000 v 119.100000" fill="none" stroke="blue" stroke-width="1"/>
<path transform="rotate(0, 1520.000000, 412.500000)" d="M 1520.000000 412.500000 m -49.500000 -49.500000 v -119.100000 a 49.500000 49.500000 0 0 1 99.000000 0.000000 v 119.100000" fill="none" stroke="blue" stroke-width="1"/>
<path transform="rotate(90, 1520.000000, 412.500000)" d="M 1520.000000 412.500000 m -49.500000 -49.500000 v -119.100000 a 49.500000 49.500000 0 0 1 99.000000 0.000000 v 119.100000" fill="none" stroke="blue" stroke-width="1"/>
<path transform="rotate(180, 1520.000000, 412.500000)" d="M 1520.000000 412.500000 m -49.500000 -49.500000 v -119.100000 a 49.500000 49.500000 0 0 1 99.000000 0.000000 v 119.100000" fill="none" stroke="blue" stroke-width="1"/>
<path transform="rotate(270, 1520.000000, 412.500000)" d="M 1520.000000 412.500000 m -49.500000 -49.500000 v -119.100000 a 49.500000 49.500000 0 0 1 99.000000 0.000000 v 119.100000" fill="none" stroke="blue" stroke-width="1"/>

</svg>

