<?xml version="1.0" standalone="no"?>
<!DOCTYPE svg PUBLIC "-//W3C//DTD SVG 1.1//EN" 
  "http://www.w3.org/Graphics/SVG/1.1/DTD/svg11.dtd">
<svg width="30.0cm" height="15.0cm" viewBox="0 0 3000 1500"
     xmlns="http://www.w3.org/2000/svg" version="1.1">

<path transform="rotate(0, 261.000000, 261.000000)" d="M 261.000000 261.000000 m -49.500000 -49.500000 v -119.100000 a 49.500000 49.500000 0 0 1 99.000000 0.000000 v 119.100000" fill="none" stroke="blue" stroke-width="1"/>
<path transform="rotate(90, 261.000000, 261.000000)" d="M 261.000000 261.000000 m -49.500000 -49.500000 v -119.100000 a 49.500000 49.500000 0 0 1 99.000000 0.000000 v 119.100000" fill="none" stroke="blue" stroke-width="1"/>
<path transform="rotate(180, 261.000000, 261.000000)" d="M 261.000000 261.000000 m -49.500000 -49.500000 v -119.100000 a 49.500000 49.500000 0 0 1 99.000000 0.000000 v 119.100000" fill="none" stroke="blue" stroke-width="1"/>
<path transform="rotate(270, 261.000000, 261.000000)" d="M 261.000000 261.000000 m -49.500000 -49.500000 v -119.100000 a 49.500000 49.500000 0 0 1 99.000000 0.000000 v 119.100000" fill="none" stroke="blue" stroke-width="1"/>
<path transform="rotate(0, 261.000000, 750.000000)" d="M 261.000000 750.000000 m -49.500000 -49.500000 v -119.100000 a 49.500000 49.500000 0 0 1 99.000000 0.000000 v 119.100000" fill="none" stroke="blue" stroke-width="1"/>
<path transform="rotate(90, 261.000000, 750.000000)" d="M 261.000000 750.000000 m -49.500000 -49.500000 v -119.100000 a 49.500000 49.500000 0 0 1 99.000000 0.000000 v 119.100000" fill="none" stroke="blue" stroke-width="1"/>
<path transform="rotate(180, 261.000000, 750.000000)" d="M 261.000000 750.000000 m -49.500000 -49.500000 v -119.100000 a 49.500000 49.500000 0 0 1 99.000000 0.000000 v 119.100000" fill="none" stroke="blue" stroke-width="1"/>
<path transform="rotate(270, 261.000000, 750.000000)" d="M 261.000000 750.000000 m -49.500000 -49.500000 v -119.100000 a 49.500000 49.500000 0 0 1 99.000000 0.000000 v 119.100000" fill="none" stroke="blue" stroke-width="1"/>
<path transform="rotate(0, 261.000000, 1239.000000)" d="M 261.000000 1239.000000 m -49.500000 -49.500000 v -119.100000 a 49.500000 49.500000 0 0 1 99.000000 0.000000 v 119.100000" fill="none" stroke="blue" stroke-width="1"/>
<path transform="rotate(90, 261.000000, 1239.000000)" d="M 261.000000 1239.000000 m -49.500000 -49.500000 v -119.100000 a 49.500000 49.500000 0 0 1 99.000000 0.000000 v 119.100000" fill="none" stroke="blue" stroke-width="1"/>
<path transform="rotate(180, 261.000000, 1239.000000)" d="M 261.000000 1239.000000 m -49.500000 -49.500000 v -119.100000 a 49.500000 49.500000 0 0 1 99.000000 0.000000 v 119.100000" fill="none" stroke="blue" stroke-width="1"/>
<path transform="rotate(270, 261.000000, 1239.000000)" d="M 261.000000 1239.000000 m -49.500000 -49.500000 v -119.100000 a 49.500000 49.500000 0 0 1 99.000000 0.000000 v 119.100000" fill="none" stroke="blue" stroke-width="1"/>
<path transform="rotate(0, 750.000000, 261.000000)" d="M 750.000000 261.000000 m -49.500000 -49.500000 v -119.100000 a 49.500000 49.500000 0 0 1 99.000000 0.000000 v 119.100000" fill="none" stroke="blue" stroke-width="1"/>
<path transform="rotate(90, 750.000000, 261.000000)" d="M 750.000000 261.000000 m -49.500000 -49.500000 v -119.100000 a 49.500000 49.500000 0 0 1 99.000000 0.000000 v 119.100000" fill="none" stroke="blue" stroke-width="1"/>
<path transform="rotate(180, 750.000000, 261.000000)" d="M 750.000000 261.000000 m -49.500000 -49.500000 v -119.100000 a 49.500000 49.500000 0 0 1 99.000000 0.000000 v 119.100000" fill="none" stroke="blue" stroke-width="1"/>
<path transform="rotate(270, 750.000000, 261.000000)" d="M 750.000000 261.000000 m -49.500000 -49.500000 v -119.100000 a 49.500000 49.500000 0 0 1 99.000000 0.000000 v 119.100000" fill="none" stroke="blue" stroke-width="1"/>
<path transform="rotate(0, 750.000000, 750.000000)" d="M 750.000000 750.000000 m -49.500000 -49.500000 v -119.100000 a 49.500000 49.500000 0 0 1 99.000000 0.000000 v 119.100000" fill="none" stroke="blue" stroke-width="1"/>
<path transform="rotate(90, 750.000000, 750.000000)" d="M 750.000000 750.000000 m -49.500000 -49.500000 v -119.100000 a 49.500000 49.500000 0 0 1 99.000000 0.000000 v 119.100000" fill="none" stroke="blue" stroke-width="1"/>
<path transform="rotate(180, 750.000000, 750.000000)" d="M 750.000000 750.000000 m -49.500000 -49.500000 v -119.100000 a 49.500000 49.500000 0 0 1 99.000000 0.000000 v 119.100000" fill="none" stroke="blue" stroke-width="1"/>
<path transform="rotate(270, 750.000000, 750.000000)" d="M 750.000000 750.000000 m -49.500000 -49.500000 v -119.100000 a 49.500000 49.500000 0 0 1 99.000000 0.000000 v 119.100000" fill="none" stroke="blue" stroke-width="1"/>

</svg>

