<?xml version="1.0" standalone="no"?>
<!DOCTYPE svg PUBLIC "-//W3C//DTD SVG 1.1//EN" 
  "http://www.w3.org/Graphics/SVG/1.1/DTD/svg11.dtd">
<svg width="20.0cm" height="15.0cm" viewBox="0 0 2000 1500"
     xmlns="http://www.w3.org/2000/svg" version="1.1">
<rect x="0" y="0" width="1500" height="1500" fill="none" stroke="blue" stroke-width="1"/><rect x="33" y="33" width="456" height="456" fill="none" stroke="blue" stroke-width="1"/><circle cx="261" cy="261" r="129" fill="none" stroke="blue" stroke-width="1" /><circle cx="261" cy="261" r="211" fill="none" stroke="blue" stroke-width="1" /><rect x="33" y="522" width="456" height="456" fill="none" stroke="blue" stroke-width="1"/><circle cx="261" cy="750" r="129" fill="none" stroke="blue" stroke-width="1" /><circle cx="261" cy="750" r="211" fill="none" stroke="blue" stroke-width="1" /><rect x="33" y="1011" width="456" height="456" fill="none" stroke="blue" stroke-width="1"/><circle cx="261" cy="1239" r="129" fill="none" stroke="blue" stroke-width="1" /><circle cx="261" cy="1239" r="211" fill="none" stroke="blue" stroke-width="1" /><rect x="522" y="33" width="456" height="456" fill="none" stroke="blue" stroke-width="1"/><circle cx="750" cy="261" r="129" fill="none" stroke="blue" stroke-width="1" /><circle cx="750" cy="261" r="211" fill="none" stroke="blue" stroke-width="1" /><rect x="522" y="522" width="456" height="456" fill="none" stroke="blue" stroke-width="1"/><circle cx="750" cy="750" r="129" fill="none" stroke="blue" stroke-width="1" /><circle cx="750" cy="750" r="211" fill="none" stroke="blue" stroke-width="1" /><rect x="522" y="1011" width="456" height="456" fill="none" stroke="blue" stroke-width="1"/><path transform="rotate(0, 750.000000, 1239.000000)" d="M 750.000000 1239.000000 m -49.500000 -49.500000 v -119.100000 a 49.500000 49.500000 0 0 1 99.000000 0.000000 v 119.100000" fill="none" stroke="blue" stroke-width="1"/><path transform="rotate(90, 750.000000, 1239.000000)" d="M 750.000000 1239.000000 m -49.500000 -49.500000 v -119.100000 a 49.500000 49.500000 0 0 1 99.000000 0.000000 v 119.100000" fill="none" stroke="blue" stroke-width="1"/><path transform="rotate(180, 750.000000, 1239.000000)" d="M 750.000000 1239.000000 m -49.500000 -49.500000 v -119.100000 a 49.500000 49.500000 0 0 1 99.000000 0.000000 v 119.100000" fill="none" stroke="blue" stroke-width="1"/><path transform="rotate(270, 750.000000, 1239.000000)" d="M 750.000000 1239.000000 m -49.500000 -49.500000 v -119.100000 a 49.500000 49.500000 0 0 1 99.000000 0.000000 v 119.100000" fill="none" stroke="blue" stroke-width="1"/><rect x="1011" y="33" width="456" height="456" fill="none" stroke="blue" stroke-width="1"/><path transform="rotate(0, 1239.000000, 261.000000)" d="M 1239.000000 261.000000 m -49.500000 -49.500000 v -119.100000 a 49.500000 49.500000 0 0 1 99.000000 0.000000 v 119.100000" fill="none" stroke="blue" stroke-width="1"/><path transform="rotate(90, 1239.000000, 261.000000)" d="M 1239.000000 261.000000 m -49.500000 -49.500000 v -119.100000 a 49.500000 49.500000 0 0 1 99.000000 0.000000 v 119.100000" fill="none" stroke="blue" stroke-width="1"/><path transform="rotate(180, 1239.000000, 261.000000)" d="M 1239.000000 261.000000 m -49.500000 -49.500000 v -119.100000 a 49.500000 49.500000 0 0 1 99.000000 0.000000 v 119.100000" fill="none" stroke="blue" stroke-width="1"/><path transform="rotate(270, 1239.000000, 261.000000)" d="M 1239.000000 261.000000 m -49.500000 -49.500000 v -119.100000 a 49.500000 49.500000 0 0 1 99.000000 0.000000 v 119.100000" fill="none" stroke="blue" stroke-width="1"/><rect x="1011" y="522" width="456" height="456" fill="none" stroke="blue" stroke-width="1"/><path transform="rotate(0, 1239.000000, 750.000000)" d="M 1239.000000 750.000000 m -49.500000 -49.500000 v -119.100000 a 49.500000 49.500000 0 0 1 99.000000 0.000000 v 119.100000" fill="none" stroke="blue" stroke-width="1"/><path transform="rotate(90, 1239.000000, 750.000000)" d="M 1239.000000 750.000000 m -49.500000 -49.500000 v -119.100000 a 49.500000 49.500000 0 0 1 99.000000 0.000000 v 119.100000" fill="none" stroke="blue" stroke-width="1"/><path transform="rotate(180, 1239.000000, 750.000000)" d="M 1239.000000 750.000000 m -49.500000 -49.500000 v -119.100000 a 49.500000 49.500000 0 0 1 99.000000 0.000000 v 119.100000" fill="none" stroke="blue" stroke-width="1"/><path transform="rotate(270, 1239.000000, 750.000000)" d="M 1239.000000 750.000000 m -49.500000 -49.500000 v -119.100000 a 49.500000 49.500000 0 0 1 99.000000 0.000000 v 119.100000" fill="none" stroke="blue" stroke-width="1"/><rect x="1011" y="1011" width="456" height="456" fill="none" stroke="blue" stroke-width="1"/><path transform="rotate(0, 1239.000000, 1239.000000)" d="M 1239.000000 1239.000000 m -49.500000 -49.500000 v -119.100000 a 49.500000 49.500000 0 0 1 99.000000 0.000000 v 119.100000" fill="none" stroke="blue" stroke-width="1"/><path transform="rotate(90, 1239.000000, 1239.000000)" d="M 1239.000000 1239.000000 m -49.500000 -49.500000 v -119.100000 a 49.500000 49.500000 0 0 1 99.000000 0.000000 v 119.100000" fill="none" stroke="blue" stroke-width="1"/><path transform="rotate(180, 1239.000000, 1239.000000)" d="M 1239.000000 1239.000000 m -49.500000 -49.500000 v -119.100000 a 49.500000 49.500000 0 0 1 99.000000 0.000000 v 119.100000" fill="none" stroke="blue" stroke-width="1"/><path transform="rotate(270, 1239.000000, 1239.000000)" d="M 1239.000000 1239.000000 m -49.500000 -49.500000 v -119.100000 a 49.500000 49.500000 0 0 1 99.000000 0.000000 v 119.100000" fill="none" stroke="blue" stroke-width="1"/>
</svg>
